<svg width="221" height="221" viewBox="0 0 221 221" fill="none" xmlns="http://www.w3.org/2000/svg">
<g clip-path="url(#clip0_108_2)">
<path d="M157.521 157.462H102.271V82.688L150.043 108.859L157.521 157.462Z" fill="#2F2E41"/>
<path d="M112.477 144.265C132.288 144.265 148.348 128.205 148.348 108.395C148.348 88.584 132.288 72.5242 112.477 72.5242C92.6666 72.5242 76.6068 88.584 76.6068 108.395C76.6068 128.205 92.6666 144.265 112.477 144.265Z" fill="#FFB6B6"/>
<path d="M91.8853 149.57L90.2647 133.188L122.626 127.137L141.735 173.664L108.502 211.882L84.8232 165.355L91.8853 149.57Z" fill="#FFB6B6"/>
<path d="M189.861 187.389C189.458 187.808 189.046 188.224 188.635 188.635C187.331 189.94 186.001 191.207 184.643 192.436C164.288 210.897 138.171 221 110.5 221C84.9895 221 60.7999 212.413 41.2298 196.607C41.2173 196.599 41.209 196.59 41.1965 196.578C40.6025 196.1 40.0168 195.614 39.431 195.12C39.5349 194.821 39.6471 194.526 39.7592 194.235C46.0527 177.839 58.4819 169.817 66.0258 166.307C69.7645 164.566 72.3027 163.93 72.3027 163.93L81.1593 147.979L87.3947 159.61L91.9892 168.184L110.841 203.357L127.104 162.863L132.143 150.309L133.435 147.094L139.579 151.875L145.395 156.399L157.105 158.983L166.606 161.081L179.508 163.93C184.726 168.18 187.9 176.264 189.674 186.309C189.74 186.666 189.802 187.027 189.861 187.389Z" fill="#70896C"/>
<path d="M93.609 67.6306C97.9784 60.2911 106.003 55.2553 114.513 54.5131C123.022 53.7709 131.797 57.3413 137.372 63.8136C140.693 67.6704 142.871 72.3937 146.109 76.3212C153.076 84.773 164.957 89.7148 168.001 100.237C169.329 104.828 168.667 109.73 167.995 114.463C167.419 118.519 166.843 122.575 166.267 126.631C165.819 129.788 165.389 133.115 166.572 136.076C167.961 139.549 171.284 141.824 173.433 144.886C177.089 150.096 176.822 157.723 172.81 162.665C171.07 164.808 168.764 166.424 166.94 168.495C165.116 170.567 163.763 173.4 164.527 176.052C165.99 181.133 173.958 182.352 174.832 187.566C175.279 190.233 173.438 192.895 171.025 194.114C168.612 195.333 165.772 195.369 163.088 195.043C152.888 193.803 143.444 187.43 138.478 178.435C133.512 169.44 133.151 158.052 137.536 148.76C141.138 141.128 147.832 134.384 147.759 125.946C147.719 121.348 145.611 117.055 143.549 112.945C139.328 104.535 135.108 96.1247 130.888 87.7144C128.627 83.2092 126.004 78.3544 121.349 76.419C117.753 74.9233 113.671 75.5034 109.824 76.1152C105.977 76.727 101.901 77.3225 98.2938 75.8527C94.6861 74.383 91.9602 70.0162 93.6791 66.5204" fill="#2F2E41"/>
<path d="M99.8951 68.0139C92.9649 65.7327 85.1907 69.3948 80.4989 74.9822C75.8071 80.5696 73.5313 87.7379 71.3632 94.7043C70.1213 98.6947 68.8794 102.685 67.6375 106.676C66.4692 110.429 65.301 114.183 64.1328 117.937C62.7586 122.352 61.3733 127.043 62.501 131.527C63.3163 134.77 65.4141 137.714 65.4593 141.056C65.5065 144.548 63.3197 147.614 61.4034 150.533C59.487 153.452 57.6881 156.921 58.6012 160.291C59.9899 165.418 67.118 168.236 66.7272 173.534C66.5968 175.302 65.5745 176.937 65.5931 178.709C65.6167 180.965 67.3824 182.914 69.4512 183.812C71.5199 184.711 73.847 184.759 76.1021 184.72C83.0193 184.598 89.924 183.777 96.6766 182.272C99.2746 181.693 101.917 180.983 104.079 179.431C106.242 177.88 107.855 175.309 107.574 172.662C107.135 168.537 102.7 166.197 100.463 162.705C98.2644 159.275 98.3154 154.929 97.3675 150.966C96.0649 145.521 92.8477 140.767 90.4326 135.716C81.3529 116.725 84.5314 92.5179 98.2059 76.5146C99.415 75.0996 100.736 73.6762 101.24 71.8847C101.745 70.0931 101.095 67.8106 99.342 67.1839" fill="#2F2E41"/>
<path d="M188.635 32.3649C167.765 11.4945 140.015 0 110.5 0C80.9849 0 53.2353 11.4945 32.3649 32.3649C11.4945 53.2352 0 80.9848 0 110.5C0 137.44 9.57528 162.909 27.1223 183.019C28.7965 184.942 30.5454 186.816 32.3649 188.635C32.7927 189.063 33.2248 189.491 33.661 189.906C34.8241 191.032 36.008 192.133 37.2128 193.201C37.9439 193.853 38.6833 194.492 39.4311 195.12C40.0168 195.614 40.6025 196.1 41.1966 196.578C41.209 196.59 41.2174 196.599 41.2298 196.607C60.7999 212.413 84.9895 221 110.5 221C138.171 221 164.288 210.897 184.643 192.436C186.001 191.207 187.331 189.94 188.635 188.635C189.046 188.224 189.458 187.808 189.861 187.389C190.982 186.234 192.071 185.058 193.134 183.866C211.151 163.627 221 137.822 221 110.5C221 80.9848 209.506 53.2352 188.635 32.3649ZM192.864 182.832C191.826 184.012 190.762 185.175 189.674 186.309C187.979 188.074 186.23 189.786 184.423 191.435C183.737 192.066 183.044 192.681 182.342 193.292C175.251 199.461 167.358 204.728 158.846 208.924C155.859 210.399 152.797 211.74 149.665 212.941C137.498 217.61 124.292 220.169 110.5 220.169C97.1902 220.169 84.4286 217.785 72.6184 213.423C67.7706 211.637 63.0847 209.514 58.5858 207.084C57.9253 206.726 57.2689 206.365 56.6167 205.995C53.1854 204.051 49.8662 201.928 46.68 199.635C44.2997 197.928 41.99 196.129 39.7592 194.235C38.9783 193.574 38.2056 192.906 37.4454 192.22C36.2074 191.119 34.9944 189.985 33.8105 188.822C31.5673 186.625 29.4237 184.336 27.3758 181.955C10.8382 162.747 0.830827 137.772 0.830827 110.5C0.830827 50.0282 50.0282 0.830827 110.5 0.830827C170.972 0.830827 220.169 50.0282 220.169 110.5C220.169 138.191 209.854 163.515 192.864 182.832Z" fill="#3F3D56"/>
</g>
<defs>
<clipPath id="clip0_108_2">
<rect width="221" height="221" fill="white"/>
</clipPath>
</defs>
</svg>
